<svg id="Layer_1" data-name="Layer 1" xmlns="http://www.w3.org/2000/svg" viewBox="0 0 29.23 50.86"><defs><style>.cls-1{fill:#231f20;}</style></defs><title>logo</title><path class="cls-1" d="M27.7,48.55c-.06-.15-10.8.87-11.42.88A64,64,0,0,1,2.37,48.3c-.79-.15-1.12,1.05-.33,1.21,8.84,1.73,17.64,1.19,26.55.24.36,0,.76-.37.6-.79l-.28-.74c-.28-.74-1.49-.42-1.21.33Z"/><path class="cls-1" d="M24.12,50.26A135.7,135.7,0,0,0,25,32.73a.63.63,0,0,0-1.25,0,135.7,135.7,0,0,1-.87,17.53c-.09.8,1.16.79,1.25,0Z"/><path class="cls-1" d="M8.31,49.38H8a.63.63,0,0,0,0,1.25h.28a.63.63,0,0,0,0-1.25Z"/><path class="cls-1" d="M8.56,50a80.87,80.87,0,0,1-.21-8.82c0-.87.78-9.48,1.26-9.21a.63.63,0,0,0,.63-1.08c-2-1.11-2.31,1.36-2.51,2.85A78.48,78.48,0,0,0,7.31,50c.06.8,1.31.8,1.25,0Z"/><path class="cls-1" d="M27.55,34l.22-.82a.63.63,0,0,0-.29-.71C22.43,30,18.72,26.28,15.1,22.06a.63.63,0,0,0-.88,0A137.68,137.68,0,0,1,.27,34c-.52.39-.25,1.4.48,1.14l2.49-.88C4,34,3.67,32.76,2.91,33l-2.49.88L.9,35.06c2-1.51,4-3,6-4.66,1.73-1.44,5.6-6.23,7.71-6.12s4.77,4.33,6.45,5.67c.73.58,5.42,3.3,5.31,3.73a.63.63,0,0,0,1.21.33Z"/><path class="cls-1" d="M16.19,8.16c-.13-1.07-.48-1.65-1.72-1.48a2.88,2.88,0,0,0-2.23,2c-.67,1.79-.68,4.65,1.32,5.6a3,3,0,0,0,4.13-2.75,3.74,3.74,0,0,0-1.52-2.86c-.63-.48-1.58-.78-2.06.06a.63.63,0,0,0,1.08.63A11.76,11.76,0,0,1,16.36,11a1.77,1.77,0,0,1-.18,1.45,1.63,1.63,0,0,1-2.56.31C12.68,11.66,13,7.09,15.16,8l-.31-.54.09.71c.1.79,1.35.8,1.25,0Z"/><path class="cls-1" d="M13,5a4.46,4.46,0,0,0-2.09-2.52c-.7-.39-1.34.69-.63,1.08a3.16,3.16,0,0,1,1.51,1.78C12,6.07,13.21,5.75,13,5Z"/><path class="cls-1" d="M10.44,9.11a6.27,6.27,0,0,0-4.92,1c-.65.46,0,1.54.63,1.08a5,5,0,0,1,4-.85c.79.16,1.12-1,.33-1.21Z"/><path class="cls-1" d="M9.83,13.86,7.71,17c-.45.67.63,1.29,1.08.63l2.12-3.12c.45-.67-.63-1.29-1.08-.63Z"/><path class="cls-1" d="M14.92,16.36,16,17.62a5.39,5.39,0,0,0,1,1c.62.42,1.42.39,1.71-.38s-.93-1.08-1.21-.33l.3-.27-.07,0a1.19,1.19,0,0,0-.15-.13,8.43,8.43,0,0,1-.6-.71L15.8,15.48c-.52-.61-1.4.27-.88.88Z"/><path class="cls-1" d="M18.52,13.87a2.42,2.42,0,0,0,3-.4c.54-.59-.34-1.48-.88-.88a1.16,1.16,0,0,1-1.51.2c-.68-.43-1.31.65-.63,1.08Z"/><path class="cls-1" d="M18.12,7.8a1.91,1.91,0,0,0,2.11-2.65c-.33-.73-1.41-.1-1.08.63.17.37-.32.87-.69.81-.79-.14-1.12,1.07-.33,1.21Z"/><path class="cls-1" d="M15.88,4.38V.6a.63.63,0,0,0-1.25,0V4.38a.63.63,0,0,0,1.25,0Z"/><path class="cls-1" d="M11.1,26.93l.25-.17L10.44,26c-.37,1.87-.8,5.15,1.44,6.08,2.7,1.12,3.21-2.56,3.75-4.29l-1,.28a2.74,2.74,0,0,0,3.15,1c1.34-.54,1.47-1.93,1.39-3.2-.05-.8-1.3-.8-1.25,0s.1.82-.68,1.48q-.47,1-1.1.4a1,1,0,0,1-.63-.53c-.31-.39-.92-.13-1,.28-.33,1.07-.72,4.2-2.26,3.23-1.23-.77-.75-3.2-.52-4.36.1-.49-.43-1-.92-.71l-.25.17c-.66.45,0,1.53.63,1.08Z"/><path class="cls-1" d="M19.66,49c.06-.89.13-1.8.12-2.69a1.85,1.85,0,0,0-.3-1.27c-.91-1.05-3-.13-4.14-.2-.94-.06-2.17-.46-2.61.73a2.43,2.43,0,0,0,0,1.41c.22.92.52,1.84.78,2.75a.63.63,0,0,0,1.21,0l.07-.26a.63.63,0,0,0-1.21-.33l-.07.26h1.21l-.44-1.57A4.27,4.27,0,0,1,14,46.67q-.22-.35.2-.48a.4.4,0,0,1,.57-.15c.4,0,.82.08,1.23,0,.65,0,2.16-.58,2.55,0,.14.22,0,.95,0,1.24,0,.55-.05,1.1-.09,1.65-.06.8,1.19.8,1.25,0Z"/></svg>